<svg width="14" height="19" viewBox="0 0 14 19" fill="none" xmlns="http://www.w3.org/2000/svg">
<g clip-path="url(#clip0_2086_859)">
<path d="M0.0433872 5.8106C0.220264 5.06019 0.917196 4.5 1.75 4.5H12.25C13.0828 4.5 13.7797 5.06019 13.9566 5.8106L7 9.90441L0.0433872 5.8106ZM0 6.77254V12.7579L5.0778 9.76071L0 6.77254ZM5.91623 10.2541L0.167887 13.6471C0.448529 14.217 1.05147 14.6111 1.75 14.6111H12.25C12.9485 14.6111 13.5515 14.217 13.8321 13.6471L8.08377 10.2541L7 10.8919L5.91623 10.2541ZM8.9222 9.76071L14 12.7579V6.77254L8.9222 9.76071Z" fill="#1C9ED7"/>
</g>
<defs>
<clipPath id="clip0_2086_859">
<rect width="14" height="14" fill="white" transform="translate(0 2.5)"/>
</clipPath>
</defs>
</svg>
