<svg width="80" height="80" viewBox="0 0 80 80" fill="none" xmlns="http://www.w3.org/2000/svg">
<g clip-path="url(#clip0_2091_290)">
<path d="M62.8221 11.1495C62.7511 11.1497 62.6811 11.1336 62.6174 11.1024L51.8256 5.8871L51.7927 5.87063L46.4421 2.76122C46.3369 2.70006 46.2595 2.60053 46.2261 2.48351C46.1927 2.3665 46.2059 2.24109 46.263 2.13363C46.3201 2.02616 46.4166 1.94498 46.5322 1.90713C46.6479 1.86928 46.7737 1.8777 46.8833 1.93063L57.6762 7.14474L63.0586 10.2706C63.1481 10.3226 63.218 10.4026 63.2575 10.4983C63.297 10.5941 63.3038 10.7001 63.2768 10.8001C63.2499 10.9001 63.1907 10.9884 63.1085 11.0513C63.0263 11.1143 62.9256 11.1483 62.8221 11.1483V11.1495Z" fill="black"/>
<path d="M52.9821 16.621C52.7409 16.621 52.5127 16.5645 52.3127 16.4481C51.8527 16.1833 51.588 15.6445 51.5857 14.9704L51.5586 5.46452C51.5587 5.38488 51.5791 5.30658 51.6176 5.23691C51.6562 5.16724 51.7118 5.10846 51.7792 5.06607C51.8466 5.02367 51.9237 4.99903 52.0032 4.99444C52.0827 4.98985 52.162 5.00546 52.2339 5.03981L63.0268 10.2539C63.104 10.2911 63.1695 10.3486 63.2164 10.4203C63.2633 10.4919 63.2897 10.575 63.2929 10.6606C63.296 10.7462 63.2757 10.831 63.2343 10.9059C63.1928 10.9808 63.1316 11.043 63.0574 11.0857L53.9774 16.3281C53.677 16.5114 53.3339 16.6116 52.9821 16.621ZM52.5021 6.21511L52.5257 14.9681C52.528 15.2975 52.6198 15.5398 52.7821 15.6328C52.9468 15.7292 53.2115 15.6845 53.5068 15.5128L61.8174 10.7151L52.5021 6.21511Z" fill="black"/>
<path d="M25.5012 78.1165C24.9294 78.1165 24.3953 77.9847 23.9188 77.7177C23.8988 77.7083 23.8788 77.6989 23.86 77.6871L23.6835 77.5812C23.5731 77.5208 23.4749 77.4402 23.3941 77.3436C23.2898 77.2677 23.1957 77.1787 23.1141 77.0789C22.8624 76.7974 22.6571 76.4778 22.5059 76.1318C22.3622 75.8109 22.2571 75.474 22.1929 75.1283C22.1679 74.9964 22.1499 74.8633 22.1388 74.7295C22.111 74.6183 22.0983 74.504 22.1012 74.3895C22.0894 74.2459 22.0777 74.06 22.0777 73.8718L21.9482 28.6718C21.9482 28.0424 22.0259 27.3777 22.1718 26.7424C22.3056 26.0998 22.5027 25.4721 22.76 24.8683C22.8435 24.6659 22.9282 24.4636 23.0106 24.2706L23.3318 23.64C23.9706 22.4259 24.7882 21.3295 25.6965 20.4718C25.8671 20.2989 26.0494 20.1412 26.2294 19.9836C26.6168 19.6573 27.0295 19.3623 27.4635 19.1012C27.4855 19.0879 27.5088 19.0769 27.5329 19.0683L51.7953 5.05182C51.8668 5.01053 51.9479 4.98879 52.0305 4.98877C52.113 4.98875 52.1942 5.01045 52.2657 5.0517C52.3372 5.09294 52.3966 5.15228 52.438 5.22375C52.4793 5.29522 52.5011 5.37631 52.5012 5.45888L52.5247 14.9648C52.5247 15.2965 52.6188 15.5389 52.7835 15.633C52.9482 15.7248 53.2094 15.6848 53.4977 15.513L62.5847 10.2753C62.6562 10.2341 62.7373 10.2123 62.8199 10.2123C62.9025 10.2123 62.9836 10.234 63.0551 10.2752C63.1266 10.3165 63.186 10.3758 63.2274 10.4473C63.2687 10.5188 63.2905 10.5998 63.2906 10.6824L63.4071 50.553C63.4188 54.073 60.9388 58.3742 57.8777 60.1389L28.1012 77.3271C27.1929 77.8506 26.3094 78.1165 25.5012 78.1165ZM27.8871 19.9448C27.7165 20.0471 27.5541 20.1589 27.3918 20.2706C27.2094 20.4 27.0341 20.5318 26.8577 20.6848C25.7496 21.6327 24.8348 22.7855 24.1635 24.08L23.8577 24.68L23.6306 25.2271C23.3953 25.7786 23.2152 26.3519 23.0929 26.9389C22.9606 27.5071 22.8923 28.0884 22.8894 28.6718L23.0188 73.8706C23.0188 74.0365 23.0306 74.2024 23.0412 74.3577C23.0412 74.4542 23.0494 74.5106 23.0647 74.5695C23.0859 74.74 23.0953 74.84 23.1153 74.9447C23.1482 75.1036 23.1906 75.2647 23.2329 75.4036C23.2718 75.5177 23.3129 75.633 23.3647 75.7459C23.4847 76.0165 23.6318 76.2459 23.8153 76.4506C23.8918 76.5365 23.9659 76.6118 24.0506 76.6765L23.9247 77.1777L24.1671 76.7742L24.3071 76.8589L24.3082 76.8553C25.1671 77.3765 26.3459 77.2553 27.6306 76.5118L57.4071 59.3236C60.2082 57.7095 62.4777 53.7765 62.4659 50.5542L62.3506 11.4965L53.9718 16.3259C53.3882 16.6695 52.7824 16.7165 52.3165 16.4495C51.8506 16.1836 51.5835 15.6424 51.5835 14.9648L51.5612 6.27535L27.9494 19.9142C27.9282 19.9259 27.9071 19.9353 27.8871 19.9448ZM49.6965 57.0271C49.4471 57.0271 49.2106 56.9742 48.9953 56.8706C48.4929 56.6283 48.16 56.1318 48.0588 55.4706C48.0314 55.3236 48.018 55.1743 48.0188 55.0247C48.0188 53.4765 49.0729 51.6542 50.4188 50.8753C51.1482 50.4565 51.86 50.4059 52.4212 50.7295C52.9812 51.053 53.2894 51.693 53.2894 52.5295C53.3024 54.0671 52.2541 55.8848 50.9012 56.6683C50.4882 56.9059 50.0777 57.0271 49.6965 57.0271ZM51.6165 51.4624C51.4035 51.4624 51.1518 51.5389 50.8882 51.6906C49.8435 52.2953 48.96 53.8224 48.96 55.0247C48.96 55.1212 48.9682 55.2189 48.9859 55.3071C49.0271 55.573 49.1282 55.8895 49.4024 56.0224C49.6588 56.1459 50.0259 56.0871 50.4306 55.8518C51.4812 55.2459 52.3588 53.7259 52.3482 52.5342C52.3482 52.0506 52.2035 51.6906 51.9494 51.5436C51.8475 51.4876 51.7327 51.4604 51.6165 51.4624Z" fill="black"/>
<path d="M24.0987 77.7588C24.0162 77.759 23.935 77.7375 23.8634 77.6964L23.8622 77.6952C23.8549 77.6914 23.8479 77.687 23.8411 77.6823L18.5093 74.5882C17.374 73.9294 16.7222 72.5388 16.7222 70.7705L16.5928 25.5588C16.5869 24.0176 17.0799 22.2341 17.9811 20.5352C18.011 20.4796 18.0518 20.4306 18.1011 20.391C18.1503 20.3514 18.207 20.3221 18.2677 20.3048C18.3285 20.2874 18.3921 20.2825 18.4548 20.2901C18.5175 20.2978 18.578 20.3179 18.6328 20.3494L23.9893 23.4576C24.0943 23.5188 24.1716 23.6183 24.2049 23.7351C24.2382 23.852 24.2251 23.9773 24.1681 24.0847C23.3375 25.6494 22.8822 27.2776 22.8858 28.6753L23.0152 73.8752C23.0152 75.3152 23.4775 76.3776 24.3152 76.8694L24.3352 76.8811C24.4247 76.9331 24.4947 77.0131 24.5341 77.1089C24.5736 77.2046 24.5804 77.3106 24.5534 77.4106C24.5265 77.5106 24.4673 77.5989 24.3851 77.6618C24.3029 77.7248 24.2022 77.7589 24.0987 77.7588ZM18.5928 21.4141C17.9034 22.8411 17.5293 24.2964 17.534 25.5553L17.6634 70.7694C17.6634 72.1929 18.1446 73.2882 18.9811 73.7752L22.3458 75.7258C22.1669 75.1835 22.0752 74.5611 22.0752 73.8752L21.9458 28.6776C21.9411 27.2517 22.3599 25.6223 23.1305 24.047L18.5928 21.4141Z" fill="black"/>
<path d="M23.7531 24.3355C23.6703 24.3352 23.5891 24.3128 23.5178 24.2707L18.1613 21.1637C18.0561 21.1027 17.9786 21.0033 17.945 20.8864C17.9115 20.7695 17.9245 20.6442 17.9813 20.5366C19.0496 18.5249 20.5201 16.9084 22.1225 15.9849L46.4401 1.94957C46.5119 1.90863 46.5931 1.88729 46.6758 1.8877C46.7584 1.88811 46.8394 1.91026 46.9107 1.95193L52.2637 5.05781C52.3353 5.09893 52.3948 5.15823 52.4361 5.2297C52.4775 5.30117 52.4993 5.38229 52.4993 5.46487C52.4993 5.54745 52.4775 5.62857 52.4361 5.70004C52.3948 5.77151 52.3353 5.8308 52.2637 5.87193L27.946 19.919C26.5154 20.7425 25.139 22.2602 24.1696 24.0849C24.1296 24.1607 24.0697 24.2241 23.9963 24.2683C23.9229 24.3124 23.8388 24.3357 23.7531 24.3355ZM19.0331 20.5813L23.5743 23.2166C24.6166 21.4096 25.9896 19.959 27.4754 19.1037L51.0896 5.46251L46.6754 2.90134L22.5931 16.8013C21.2672 17.566 19.9872 18.9272 19.0331 20.5813ZM36.8543 62.6249C36.7503 62.6251 36.6491 62.5908 36.5667 62.5275C36.4842 62.4641 36.425 62.3752 36.3984 62.2747C36.3718 62.1742 36.3793 62.0676 36.4196 61.9718C36.4599 61.8759 36.5308 61.7961 36.6213 61.7449L37.6919 61.1331C39.2013 60.2602 40.4307 58.1307 40.4307 56.3884L40.3601 30.226C40.3554 29.4943 40.126 28.959 39.7143 28.7237C39.299 28.4825 38.7178 28.5578 38.0778 28.926L37.0778 29.5025C37.0243 29.5334 36.9652 29.5535 36.9039 29.5615C36.8426 29.5696 36.7803 29.5655 36.7206 29.5495C36.6609 29.5335 36.605 29.5059 36.5559 29.4682C36.5069 29.4306 36.4657 29.3837 36.4348 29.3302C36.4039 29.2766 36.3839 29.2175 36.3758 29.1562C36.3678 29.095 36.3719 29.0327 36.3879 28.973C36.4039 28.9133 36.4315 28.8573 36.4691 28.8083C36.5067 28.7593 36.5537 28.7181 36.6072 28.6872L37.6072 28.1107C38.5519 27.5672 39.466 27.4955 40.1837 27.906C40.8978 28.3166 41.2943 29.139 41.3013 30.2213L41.3719 56.3872C41.3719 58.4649 39.9613 60.9072 38.1601 61.9496L37.0872 62.5625C37.0162 62.603 36.936 62.6244 36.8543 62.6249ZM45.8848 57.0272C45.5303 57.031 45.1811 56.9405 44.8731 56.7649C44.1637 56.3554 43.7719 55.5331 43.7719 54.4472L43.7013 28.2731C43.7013 26.2013 45.1119 23.7649 46.9131 22.7225L48.2919 21.9343C48.3454 21.9036 48.4045 21.8838 48.4657 21.8759C48.5269 21.8681 48.589 21.8724 48.6486 21.8885C48.7081 21.9047 48.7639 21.9324 48.8127 21.9702C48.8615 22.0079 48.9024 22.0549 48.9331 22.1084C48.9638 22.1619 48.9836 22.221 48.9914 22.2822C48.9993 22.3434 48.995 22.4055 48.9788 22.465C48.9627 22.5246 48.9349 22.5804 48.8972 22.6292C48.8595 22.678 48.8125 22.7189 48.759 22.7496L47.3825 23.5378C45.8978 24.3966 44.6425 26.5649 44.6425 28.2719L44.7131 54.4472C44.7131 55.1825 44.9366 55.7143 45.3437 55.9484C45.7507 56.1837 46.3531 56.106 46.9954 55.7355L48.2919 54.9931C48.3456 54.9581 48.4058 54.9344 48.469 54.9235C48.5322 54.9126 48.5969 54.9147 48.6592 54.9297C48.7215 54.9447 48.7801 54.9723 48.8314 55.0107C48.8827 55.0492 48.9255 55.0977 48.9574 55.1533C48.9892 55.2089 49.0094 55.2704 49.0166 55.3341C49.0239 55.3978 49.018 55.4623 48.9994 55.5236C48.9809 55.585 48.9499 55.6419 48.9086 55.6908C48.8672 55.7398 48.8163 55.7798 48.759 55.8084L47.4649 56.5496C46.9166 56.8672 46.379 57.0272 45.8848 57.0272Z" fill="black"/>
<path d="M33.7292 33.7508C33.4421 33.7508 33.1716 33.6814 32.9292 33.5414C32.3692 33.2202 32.0598 32.5826 32.0586 31.7461C32.0527 30.1991 33.1033 28.3791 34.4504 27.6014C35.1833 27.1802 35.8951 27.125 36.4563 27.4485C37.0151 27.7697 37.3245 28.4073 37.3269 29.245C37.3316 30.792 36.2798 32.612 34.9351 33.3897C34.5186 33.6297 34.108 33.7508 33.7292 33.7508ZM35.6586 28.1838C35.4421 28.1838 35.188 28.2626 34.921 28.4179C33.8751 29.0214 32.9951 30.5426 32.9986 31.7438C33.001 32.2226 33.1469 32.5814 33.3986 32.7261C33.6527 32.872 34.0421 32.8179 34.4633 32.5744C35.5092 31.9708 36.3892 30.4473 36.3857 29.2473C36.3845 28.7673 36.2386 28.4085 35.9869 28.2638C35.886 28.2085 35.7736 28.1809 35.6586 28.1838ZM36.8433 45.8955C36.7394 45.8961 36.6382 45.8622 36.5556 45.7992C36.473 45.7362 36.4135 45.6476 36.3865 45.5472C36.3595 45.4469 36.3665 45.3404 36.4063 45.2445C36.4462 45.1485 36.5167 45.0684 36.6069 45.0167L40.6186 42.6991C40.7264 42.6439 40.8513 42.6322 40.9674 42.6665C41.0835 42.7008 41.182 42.7784 41.2425 42.8834C41.3029 42.9883 41.3207 43.1124 41.2922 43.2301C41.2637 43.3478 41.191 43.45 41.0892 43.5155L37.0774 45.8332C37.0058 45.8743 36.9259 45.8958 36.8433 45.8955ZM44.2069 41.6591C44.1034 41.6589 44.0029 41.6246 43.9209 41.5616C43.8389 41.4986 43.7799 41.4103 43.7532 41.3103C43.7264 41.2104 43.7332 41.1045 43.7727 41.0089C43.8122 40.9133 43.8821 40.8333 43.9716 40.7814L48.2657 38.2991C48.3738 38.2367 48.5023 38.2198 48.6228 38.2521C48.7434 38.2844 48.8462 38.3633 48.9086 38.4714C48.971 38.5795 48.9879 38.708 48.9556 38.8286C48.9233 38.9492 48.8444 39.052 48.7363 39.1144L44.4421 41.5967C44.3707 41.6382 44.2895 41.6589 44.2069 41.6591Z" fill="black"/>
<path d="M33.7292 50.033C33.4421 50.033 33.1716 49.9624 32.9292 49.8236C32.3692 49.5024 32.0598 48.8648 32.0586 48.0283C32.0527 46.48 33.1033 44.6589 34.4504 43.8824C35.181 43.4612 35.8927 43.4048 36.4563 43.7295C37.0151 44.0506 37.3245 44.6895 37.3269 45.5271C37.3316 47.073 36.2798 48.893 34.9351 49.6706C34.5186 49.9106 34.1092 50.033 33.7292 50.033ZM35.6574 44.4636C35.4421 44.4636 35.188 44.5436 34.921 44.6989C33.8751 45.3012 32.9951 46.8248 32.9986 48.0259C33.001 48.5048 33.1469 48.8636 33.3986 49.0083C33.6539 49.1553 34.0421 49.1 34.4633 48.8553C35.5092 48.2518 36.3892 46.7283 36.3857 45.5295C36.3845 45.0495 36.2386 44.6895 35.9869 44.5448C35.8861 44.4891 35.7725 44.4611 35.6574 44.4636ZM33.7292 66.6589C33.4421 66.6589 33.1716 66.5906 32.9292 66.4506C32.3692 66.1295 32.0598 65.4918 32.0586 64.6553C32.0527 63.1083 33.1033 61.2871 34.4504 60.5106C35.1833 60.0895 35.8951 60.033 36.4563 60.3577C37.0151 60.6789 37.3245 61.3165 37.3269 62.1542C37.3316 63.7012 36.2798 65.5212 34.9351 66.2989C34.5186 66.5389 34.108 66.6589 33.7292 66.6589ZM35.6586 61.0918C35.4421 61.0918 35.188 61.1718 34.921 61.3271C33.8751 61.9295 32.9951 63.4518 32.9986 64.653C33.001 65.1318 33.1469 65.4906 33.3986 65.6353C33.6527 65.7812 34.0421 65.7283 34.4633 65.4824C35.5092 64.88 36.3892 63.3565 36.3857 62.1565C36.3845 61.6753 36.2386 61.3177 35.9869 61.173C35.8861 61.1173 35.7737 61.0893 35.6586 61.0918ZM49.6939 40.8906C49.4069 40.8906 49.1374 40.82 48.8951 40.6824C48.3351 40.3601 48.0257 39.7224 48.0245 38.8859C48.0198 37.3389 49.0704 35.5177 50.4151 34.7412C51.1492 34.32 51.861 34.2636 52.4221 34.5871C52.981 34.9083 53.2904 35.5471 53.2927 36.3848C53.2963 37.9318 52.2457 39.7518 50.901 40.5295C50.4845 40.7695 50.0739 40.8906 49.6939 40.8906ZM51.6233 35.3224C51.408 35.3224 51.1539 35.4012 50.8869 35.5577C49.841 36.16 48.961 37.6836 48.9645 38.8836C48.9657 39.3636 49.1116 39.7212 49.3645 39.8659C49.6198 40.0118 50.008 39.9577 50.4292 39.713C51.4751 39.1106 52.3551 37.5871 52.3516 36.3871C52.3504 35.9071 52.2045 35.5483 51.9516 35.4024C51.8511 35.3473 51.7379 35.3197 51.6233 35.3224ZM49.6939 24.753C49.4069 24.753 49.1374 24.6824 48.8951 24.5436C48.3351 24.2212 48.0257 23.5836 48.0245 22.7471C48.0198 21.2 49.0704 19.3789 50.4151 18.6024C51.1492 18.1812 51.861 18.1259 52.4221 18.4495C52.981 18.7706 53.2904 19.4095 53.2927 20.2471C53.2963 21.793 52.2457 23.6118 50.901 24.3906C50.4845 24.6306 50.0739 24.753 49.6939 24.753ZM51.6233 19.1836C51.408 19.1836 51.1539 19.2636 50.8869 19.4189C49.841 20.0212 48.961 21.5448 48.9645 22.7459C48.9657 23.2248 49.1116 23.5824 49.3645 23.7283C49.6198 23.8742 50.008 23.82 50.4292 23.5753C51.4751 22.9718 52.3551 21.4483 52.3516 20.2483C52.3504 19.7683 52.2045 19.4106 51.9516 19.2648C51.8512 19.2092 51.738 19.1812 51.6233 19.1836Z" fill="black"/>
</g>
<defs>
<clipPath id="clip0_2091_290">
<rect width="80" height="80" fill="white"/>
</clipPath>
</defs>
</svg>
