<svg width="80" height="80" viewBox="0 0 80 80" fill="none" xmlns="http://www.w3.org/2000/svg">
<path d="M24.1495 71.3365C23.6789 71.3365 23.113 71.2012 22.4507 70.8189C21.9301 70.5191 21.4594 70.14 21.0554 69.6954C20.6249 69.2444 20.2526 68.7412 19.9471 68.1977C19.71 67.7906 19.5126 67.3615 19.3577 66.9165C19.2889 66.7479 19.2312 66.575 19.1848 66.3989C19.1157 66.1451 19.058 65.8884 19.0118 65.6295C18.9686 65.3314 18.9454 65.0307 18.9424 64.7295L18.9542 61.233C18.9542 60.9648 18.9165 60.6624 18.8401 60.3624C18.6584 59.6265 18.3325 58.9339 17.8812 58.3248C17.7598 58.1571 17.6261 57.9986 17.4812 57.8507C17.4131 57.7708 17.3392 57.6961 17.2601 57.6271C17.0493 57.4205 16.8138 57.2407 16.5589 57.0918C16.1271 56.8413 15.7918 56.7248 15.3989 56.8118C15.173 56.9224 14.8318 56.8542 14.7118 56.6283C14.5918 56.4048 14.606 56.1436 14.8248 56.0165L25.8012 49.6401C25.8731 49.5985 25.9546 49.5765 26.0376 49.5763C26.1206 49.5761 26.2021 49.5977 26.2742 49.6389C26.4201 49.7236 26.5095 49.8801 26.5095 50.0471L26.4495 68.5295C26.4495 69.7177 26.0224 70.6142 25.2471 71.0554C24.9116 71.2422 24.5335 71.3383 24.1495 71.3365ZM16.6118 56.066C17.086 56.2768 17.5196 56.5691 17.893 56.9295C17.9707 56.9977 18.0695 57.0942 18.1683 57.2071C18.3271 57.3648 18.4812 57.5577 18.6365 57.7624C19.173 58.4965 19.5683 59.3389 19.7542 60.1413C19.8471 60.5071 19.8977 60.8883 19.8977 61.2354L19.8848 64.7307C19.8848 64.9777 19.906 65.2295 19.9401 65.4789C19.9801 65.6848 20.0236 65.9083 20.0907 66.1413C20.1318 66.2871 20.173 66.4354 20.2354 66.5789C20.3718 66.9765 20.5448 67.3518 20.7636 67.7295C21.0483 68.2318 21.3765 68.6754 21.7401 69.0495C22.1071 69.4495 22.5001 69.7671 22.9165 70.0024C23.4307 70.2977 24.1671 70.5789 24.786 70.2354C25.2495 69.9707 25.5071 69.3648 25.5071 68.5295L25.5648 50.866L16.6118 56.066ZM28.7354 77.5624C28.6319 77.5622 28.5314 77.528 28.4494 77.465C28.3674 77.4019 28.3084 77.3136 28.2817 77.2137C28.2549 77.1138 28.2618 77.0078 28.3012 76.9122C28.3407 76.8166 28.4106 76.7367 28.5001 76.6848L28.5624 76.6483C29.9754 75.8083 30.7836 73.9636 30.7836 71.573L30.9118 27.3224C30.9118 25.826 29.8177 23.9236 28.5224 23.173C27.9683 22.8565 27.4542 22.7871 27.113 22.9836L27.1083 22.986C27.0548 23.0171 26.9958 23.0374 26.9345 23.0457C26.8732 23.054 26.8108 23.0501 26.751 23.0344C26.6912 23.0186 26.6351 22.9912 26.5859 22.9537C26.5367 22.9162 26.4953 22.8694 26.4642 22.816C26.4331 22.7625 26.4128 22.7034 26.4045 22.6421C26.3961 22.5808 26.4 22.5185 26.4158 22.4587C26.4316 22.3989 26.459 22.3428 26.4965 22.2935C26.5339 22.2443 26.5807 22.203 26.6342 22.1718L26.6424 22.1683L61.1389 2.12595C61.7824 1.74948 62.6142 1.81419 63.4824 2.31066C65.1001 3.25184 66.3565 5.42831 66.3448 7.26713L66.2271 51.5283C66.2154 54.3036 65.206 56.4636 63.4589 57.4542L29.0401 77.4589L28.9683 77.5001C28.8974 77.5408 28.8171 77.5623 28.7354 77.5624ZM28.5577 22.1436C28.7012 22.2024 28.846 22.2742 28.9918 22.3565C30.5977 23.2883 31.8542 25.4695 31.8542 27.3236L31.7248 71.5742C31.7248 72.9765 31.4683 74.2213 30.986 75.2401L62.9895 56.6389C64.4401 55.8154 65.2754 53.953 65.286 51.5248L65.4036 7.26595V7.26242C65.413 5.78007 64.3189 3.88595 63.013 3.12713C62.4507 2.80595 61.9542 2.7389 61.613 2.9389L28.5577 22.1436Z" fill="black"/>
<path d="M26.5177 78.1153C25.2447 78.1153 23.8412 77.7036 22.4318 76.8895C20.1035 75.5436 17.8365 73.1542 16.2118 70.3318C14.58 67.5142 13.6483 64.3624 13.6553 61.6871L13.6718 58.193C13.6753 57.2106 14.033 56.4659 14.6824 56.0918C15.333 55.7153 16.1647 55.7824 17.0247 56.2777C18.6365 57.2083 19.8941 59.3895 19.8894 61.2424L19.8788 64.7389C19.8753 65.6647 20.193 66.7271 20.7706 67.7295C21.3494 68.7306 22.1118 69.54 22.92 70.0047C23.4306 70.3 24.1671 70.58 24.7824 70.2389C25.2435 69.9706 25.5047 69.3612 25.5118 68.5283L25.6365 24.2718C25.64 23.2906 25.9988 22.5448 26.6471 22.1706C27.2988 21.7977 28.1294 21.8624 28.9894 22.3565C30.6012 23.2871 31.8588 25.4683 31.8541 27.3212L31.7283 71.58C31.7188 74.3542 30.7118 76.513 28.9624 77.5C28.24 77.9118 27.4106 78.1153 26.5177 78.1153ZM15.6047 56.7965C15.4462 56.7932 15.2895 56.8317 15.1506 56.9083C14.8059 57.1059 14.6141 57.5636 14.613 58.1953L14.5977 61.6906C14.5906 64.2047 15.4765 67.1824 17.0259 69.8612C18.5718 72.5459 20.713 74.8083 22.9024 76.073C25.0059 77.2895 27.0483 77.5083 28.4977 76.6812C29.9447 75.8636 30.78 74.0036 30.7859 71.5765L30.9118 27.3177C30.9165 25.8236 29.82 23.9236 28.5188 23.173C27.973 22.8565 27.46 22.7895 27.1165 22.9871C26.7706 23.1848 26.58 23.6424 26.5788 24.2742L26.4541 68.5342C26.4435 69.7165 26.0153 70.6106 25.2471 71.0553C24.4624 71.4965 23.4706 71.4083 22.4494 70.82C21.4871 70.2647 20.6259 69.36 19.9553 68.2C19.2859 67.0389 18.933 65.84 18.9365 64.7365L18.9471 61.2389C18.9518 59.7448 17.8553 57.8447 16.5541 57.0942C16.213 56.8965 15.8859 56.7965 15.6047 56.7965Z" fill="black"/>
<path d="M21.4025 69.8472C21.3396 69.8474 21.2772 69.8349 21.2192 69.8104C21.1612 69.7859 21.1087 69.75 21.0649 69.7048C20.6306 69.2518 20.2551 68.7458 19.9472 68.199C19.71 67.7914 19.5126 67.362 19.3578 66.9166C19.3221 66.8007 19.3325 66.6754 19.3868 66.5669C19.4412 66.4585 19.5354 66.3752 19.6497 66.3345C19.764 66.2938 19.8896 66.2989 20.0003 66.3486C20.111 66.3983 20.1982 66.4888 20.2437 66.6013C20.3849 66.986 20.5649 67.366 20.7755 67.7295C21.0519 68.2166 21.3872 68.6742 21.7449 69.0542C21.8082 69.1211 21.8504 69.205 21.8665 69.2956C21.8826 69.3862 21.8717 69.4796 21.8353 69.5641C21.7989 69.6486 21.7384 69.7206 21.6615 69.7711C21.5846 69.8216 21.4946 69.8473 21.4025 69.8472ZM42.5319 42.5189C42.3732 42.5204 42.217 42.4798 42.079 42.4013L40.3425 41.4119C39.8249 41.1272 39.7002 40.386 40.0461 39.6119L41.0249 37.4284C41.1649 37.1166 41.1566 36.8942 41.1178 36.8178L40.9861 36.5284L39.2414 37.1931C38.9002 37.3166 38.5766 37.2848 38.319 37.1072C38.0484 36.9189 37.8966 36.5942 37.8955 36.1942L37.8884 33.3825C37.8861 32.7637 38.2484 32.046 38.7731 31.6366L40.4719 30.3107C40.6861 30.146 40.8649 29.8719 40.9425 29.5978C40.9837 29.4472 41.0296 29.3001 41.0802 29.1448C41.1566 28.8978 41.1119 28.7425 41.0872 28.7154L40.099 27.6731C39.7119 27.2554 39.7249 26.506 40.1249 25.8025L41.8472 22.8189C42.0496 22.4707 42.3237 22.186 42.6202 22.0142C42.9037 21.8519 43.1931 21.8013 43.4519 21.8601L44.8708 22.1707C44.9251 22.1667 44.9775 22.1485 45.0225 22.1178C45.1078 22.0666 45.1851 22.0032 45.2519 21.9295L45.4802 21.6884L45.9519 20.7601L46.2343 18.7154C46.3296 18.0589 46.7696 17.386 47.3049 17.0778L49.7461 15.6684C50.0943 15.4672 50.4519 15.4331 50.7531 15.5742C51.0355 15.7048 51.2249 15.9684 51.2872 16.3154L51.5943 18.0954C51.7331 18.1272 51.8343 18.1142 51.9331 18.1107C51.9331 18.1095 51.9778 18.1025 52.0566 18.0578C52.1696 17.9907 52.2943 17.8731 52.4002 17.7284L53.8072 15.7825C53.9931 15.5272 54.2131 15.3213 54.4449 15.1872C54.8178 14.9742 55.2096 14.9495 55.5155 15.126L57.2508 16.1084C57.7637 16.4107 57.8825 17.1519 57.5449 17.9119L56.5602 20.1131C56.419 20.4248 56.4355 20.6425 56.4661 20.7013L56.519 20.8166L56.6049 20.9989L58.3543 20.3331C58.6884 20.2095 59.0131 20.2378 59.2719 20.4142C59.5472 20.6036 59.699 20.9295 59.7002 21.3319L59.7072 24.1425C59.7084 24.7589 59.3425 25.4789 58.819 25.8907L57.1178 27.2119C56.9061 27.3801 56.7178 27.6707 56.6402 27.9484C56.6037 28.0778 56.5661 28.2131 56.5202 28.3507C56.4378 28.6131 56.4755 28.7742 56.499 28.8025L57.4908 29.8554C57.8814 30.2731 57.8719 31.0236 57.4672 31.7213L55.7414 34.7119C55.5414 35.0578 55.2672 35.3425 54.9672 35.5154C54.6919 35.6766 54.4096 35.7331 54.1461 35.6778L52.719 35.3519C52.7225 35.3531 52.6743 35.3495 52.5743 35.4072C52.4856 35.4607 52.4054 35.5273 52.3366 35.6048L52.0543 35.9013C51.8472 36.1131 51.6919 36.4154 51.6519 36.6895L51.3566 38.8178C51.2625 39.4742 50.8249 40.1472 50.2896 40.4566L47.1284 42.2813C47.0622 42.3194 46.9877 42.3409 46.9114 42.3438C46.835 42.3468 46.7591 42.3312 46.6901 42.2983C46.6211 42.2655 46.5612 42.2163 46.5154 42.1552C46.4696 42.094 46.4393 42.0226 46.4272 41.9472L45.9943 39.4319C45.8919 39.3966 45.7908 39.4084 45.6837 39.4154C45.6649 39.4178 45.6166 39.4237 45.5378 39.4695C45.4055 39.5519 45.2917 39.6609 45.2037 39.7895L43.7802 41.7531C43.6114 41.991 43.3951 42.1913 43.1449 42.3413C42.9597 42.4543 42.7477 42.516 42.5308 42.5201L42.5319 42.5189ZM41.0119 35.5954C41.3849 35.5954 41.7002 35.7989 41.8543 36.1648L41.9272 36.326C42.1472 36.766 42.1225 37.2813 41.8884 37.8036L41.8449 37.9095L40.9049 39.9978C40.7543 40.3342 40.7896 40.5625 40.8202 40.6037L42.5472 41.5837C42.5425 41.5789 42.5943 41.5719 42.6755 41.5248C42.8114 41.4404 42.9287 41.3291 43.0202 41.1978L44.4425 39.2354C44.6214 38.9884 44.8378 38.786 45.0672 38.6531C45.2508 38.5472 45.4378 38.4884 45.6202 38.4766C45.6993 38.4701 45.7781 38.4611 45.8566 38.4495C46.3884 38.3754 46.8331 38.7166 46.9237 39.2742L47.2472 41.126L49.819 39.6401C50.1014 39.4766 50.3743 39.0495 50.4249 38.6872L50.7214 36.5566C50.7919 36.0813 51.039 35.5895 51.3872 35.2389L51.6284 34.9837C51.7896 34.8095 51.9449 34.6837 52.1049 34.5907C52.3837 34.4307 52.6649 34.3754 52.9272 34.4331L54.3484 34.7566C54.4016 34.7483 54.4525 34.7291 54.4978 34.7001C54.6555 34.6084 54.8108 34.4413 54.9272 34.2401L56.6531 31.2495C56.8719 30.8719 56.8508 30.5554 56.8061 30.4978L55.8143 29.446C55.5202 29.1319 55.4496 28.6154 55.6261 28.0625C55.6661 27.9366 55.7014 27.8154 55.7343 27.6954C55.8661 27.2248 56.1661 26.766 56.5378 26.4695L58.239 25.1484C58.5343 24.9166 58.7672 24.4754 58.7661 24.1448L58.7578 21.3342C58.7578 21.2225 58.7296 21.1813 58.7284 21.1813L58.6849 21.2154L56.979 21.8554C56.4555 22.0542 55.9437 21.8554 55.7402 21.3742L55.6684 21.2166C55.4402 20.7625 55.4661 20.2519 55.7002 19.7284L56.6849 17.5284C56.8378 17.1837 56.799 16.9542 56.7672 16.9131L55.0519 15.9448C55.0531 15.9484 55.0049 15.9507 54.9143 16.0025C54.7778 16.0886 54.6601 16.2014 54.5684 16.3342L53.1614 18.2813C52.9917 18.5194 52.7756 18.7207 52.5261 18.8731C52.3425 18.9789 52.1614 19.0378 51.9849 19.0495C51.9002 19.0542 51.8319 19.0648 51.759 19.0742C51.1966 19.1354 50.7649 18.8119 50.6672 18.2578L50.3614 16.4778C50.3672 16.4307 50.3178 16.4237 50.2166 16.4837L47.7766 17.8942C47.4872 18.0613 47.2202 18.4801 47.1661 18.8472L46.8731 20.9684C46.8661 21.0196 46.8506 21.0693 46.8272 21.1154L46.2872 22.1778C46.2649 22.2219 46.2359 22.2624 46.2014 22.2978L45.9378 22.5742C45.799 22.7236 45.6484 22.8448 45.4919 22.9354C45.2143 23.0954 44.9272 23.1519 44.6649 23.0895L43.2449 22.7789C43.2308 22.7825 43.1766 22.7825 43.0896 22.8307C42.9108 22.9465 42.7636 23.105 42.6614 23.2919L40.9414 26.2707C40.7178 26.6648 40.739 26.9742 40.7849 27.0307L41.7766 28.0766C42.0684 28.3978 42.1414 28.9001 41.9766 29.4307C41.9296 29.5789 41.8872 29.7131 41.8496 29.8519C41.7129 30.3257 41.4336 30.746 41.0496 31.0554L39.3519 32.3801C39.0578 32.6095 38.8272 33.0507 38.8296 33.3801L38.8378 36.1931C38.8378 36.3048 38.8661 36.3437 38.8661 36.3437L40.6072 35.6719C40.7461 35.6213 40.8825 35.5954 41.0119 35.5954Z" fill="black"/>
<path d="M46.5922 35.5731C46.0392 35.5731 45.5263 35.4413 45.0686 35.179C43.9898 34.5578 43.3922 33.2895 43.3863 31.6084C43.3781 28.3319 45.6922 24.326 48.5451 22.6766C50.0216 21.8248 51.4322 21.7001 52.5192 22.3272C53.6004 22.9484 54.1981 24.219 54.2016 25.9048C54.2122 29.1778 51.9004 33.1825 49.0487 34.8284C48.191 35.3225 47.3545 35.5731 46.5922 35.5731ZM50.9945 22.8754C50.3981 22.8754 49.7251 23.0837 49.0169 23.4919C46.4216 24.9895 44.3192 28.6284 44.3287 31.606C44.3322 32.9378 44.7616 33.9166 45.5392 34.3625C46.3228 34.8131 47.4028 34.6919 48.5781 34.0131C51.1686 32.5166 53.2698 28.8801 53.2604 25.9072C53.2569 24.5719 52.8275 23.5895 52.0487 23.1425C51.7272 22.9615 51.3634 22.8693 50.9945 22.8754ZM36.2686 53.886C36.184 53.8863 36.1009 53.8636 36.0281 53.8203C35.9554 53.777 35.8958 53.7147 35.8557 53.6401C35.8259 53.586 35.8072 53.5264 35.8006 53.465C35.7939 53.4035 35.7995 53.3414 35.817 53.2821C35.8345 53.2228 35.8636 53.1676 35.9025 53.1196C35.9415 53.0716 35.9895 53.0318 36.0439 53.0025L51.5075 44.5543C51.5615 44.524 51.621 44.5048 51.6825 44.4978C51.744 44.4908 51.8063 44.4962 51.8657 44.5136C51.9251 44.5311 51.9804 44.5602 52.0284 44.5993C52.0764 44.6384 52.1161 44.6867 52.1451 44.7413C52.1749 44.7955 52.1936 44.855 52.2003 44.9165C52.2069 44.9779 52.2013 45.0401 52.1838 45.0993C52.1663 45.1586 52.1373 45.2139 52.0983 45.2618C52.0594 45.3098 52.0113 45.3496 51.9569 45.379L36.4945 53.8272C36.426 53.866 36.3486 53.8862 36.2698 53.886H36.2686ZM55.5816 43.3331C55.4971 43.3332 55.4142 43.3103 55.3417 43.267C55.2692 43.2237 55.2098 43.1616 55.1698 43.0872C55.14 43.0332 55.1211 42.9738 55.1143 42.9124C55.1075 42.8511 55.1129 42.789 55.1301 42.7297C55.1474 42.6705 55.1762 42.6152 55.2149 42.5671C55.2537 42.519 55.3015 42.4791 55.3557 42.4496L61.1028 39.3119C61.1568 39.2816 61.2163 39.2624 61.2778 39.2554C61.3393 39.2485 61.4016 39.2538 61.461 39.2713C61.5203 39.2887 61.5757 39.3178 61.6237 39.3569C61.6716 39.396 61.7113 39.4443 61.7404 39.499C61.7702 39.5531 61.7889 39.6127 61.7956 39.6741C61.8022 39.7356 61.7966 39.7977 61.7791 39.857C61.7616 39.9163 61.7326 39.9715 61.6936 40.0195C61.6547 40.0675 61.6066 40.1073 61.5522 40.1366L55.8063 43.2754C55.7378 43.3142 55.6603 43.3333 55.5816 43.3331ZM36.2686 59.9919C36.1839 59.9921 36.1007 59.9692 36.0279 59.9256C35.9552 59.8821 35.8956 59.8196 35.8557 59.7448C35.8261 59.6907 35.8075 59.6313 35.801 59.57C35.7944 59.5087 35.8001 59.4466 35.8176 59.3875C35.8351 59.3284 35.8641 59.2733 35.9029 59.2254C35.9418 59.1775 35.9897 59.1377 36.0439 59.1084L43.3204 55.1319C43.3745 55.1017 43.434 55.0825 43.4956 55.0756C43.5571 55.0687 43.6195 55.0742 43.6789 55.0918C43.7383 55.1093 43.7936 55.1385 43.8415 55.1778C43.8895 55.217 43.9291 55.2654 43.9581 55.3201C43.9878 55.3743 44.0066 55.4338 44.0132 55.4953C44.0198 55.5567 44.0143 55.6189 43.9968 55.6782C43.9793 55.7374 43.9502 55.7927 43.9112 55.8407C43.8723 55.8887 43.8242 55.9285 43.7698 55.9578L36.4934 59.9331C36.4248 59.9718 36.3474 59.9921 36.2686 59.9919ZM47.4451 53.886C47.3605 53.8863 47.2773 53.8636 47.2046 53.8203C47.1319 53.777 47.0723 53.7147 47.0322 53.6401C47.0024 53.586 46.9837 53.5264 46.977 53.465C46.9704 53.4035 46.976 53.3414 46.9935 53.2821C47.011 53.2228 47.04 53.1676 47.079 53.1196C47.1179 53.0716 47.166 53.0318 47.2204 53.0025L61.1028 45.4178C61.1569 45.3877 61.2164 45.3687 61.2779 45.3619C61.3395 45.3551 61.4017 45.3606 61.4611 45.3781C61.5204 45.3957 61.5757 45.4248 61.6237 45.464C61.6716 45.5031 61.7113 45.5514 61.7404 45.606C61.77 45.6601 61.7886 45.7196 61.7951 45.7809C61.8017 45.8422 61.796 45.9042 61.7785 45.9634C61.7611 46.0225 61.7321 46.0776 61.6932 46.1255C61.6544 46.1734 61.6064 46.2132 61.5522 46.2425L47.6698 53.8272C47.6013 53.866 47.5239 53.8862 47.4451 53.886ZM36.2686 66.0978C36.184 66.0981 36.1009 66.0753 36.0281 66.032C35.9554 65.9887 35.8958 65.9265 35.8557 65.8519C35.8259 65.7977 35.8072 65.7382 35.8006 65.6768C35.7939 65.6153 35.7995 65.5532 35.817 65.4939C35.8345 65.4346 35.8636 65.3794 35.9025 65.3314C35.9415 65.2834 35.9895 65.2436 36.0439 65.2143L53.0204 55.9378C53.0746 55.9075 53.1342 55.8884 53.1959 55.8815C53.2575 55.8746 53.3199 55.88 53.3794 55.8976C53.4389 55.9151 53.4943 55.9443 53.5424 55.9836C53.5904 56.0228 53.6302 56.0712 53.6592 56.126C53.689 56.1802 53.7077 56.2397 53.7144 56.3012C53.721 56.3626 53.7154 56.4248 53.6979 56.4841C53.6804 56.5433 53.6514 56.5986 53.6124 56.6465C53.5735 56.6945 53.5254 56.7343 53.471 56.7637L36.4945 66.039C36.426 66.0777 36.3486 66.098 36.2698 66.0978H36.2686ZM56.7369 54.9143C56.6524 54.9143 56.5695 54.8915 56.497 54.8482C56.4245 54.8049 56.3651 54.7428 56.3251 54.6684C56.2953 54.6143 56.2765 54.5548 56.2698 54.4934C56.2631 54.432 56.2685 54.3699 56.2859 54.3106C56.3033 54.2513 56.3323 54.1961 56.3711 54.1481C56.4099 54.1 56.4579 54.0602 56.5122 54.0307L61.1028 51.5225C61.1569 51.4924 61.2164 51.4734 61.2779 51.4666C61.3395 51.4598 61.4017 51.4653 61.4611 51.4828C61.5204 51.5004 61.5757 51.5295 61.6237 51.5687C61.6716 51.6078 61.7113 51.6561 61.7404 51.7107C61.7702 51.7649 61.7889 51.8244 61.7956 51.8859C61.8022 51.9473 61.7966 52.0095 61.7791 52.0688C61.7616 52.128 61.7326 52.1833 61.6936 52.2313C61.6547 52.2792 61.6066 52.319 61.5522 52.3484L56.9616 54.8554C56.8934 54.894 56.8152 54.9143 56.7369 54.9143Z" fill="black"/>
</svg>
