<svg width="80" height="80" viewBox="0 0 80 80" fill="none" xmlns="http://www.w3.org/2000/svg">
<g clip-path="url(#clip0_2091_281)">
<path d="M49.576 11.9821C48.0983 11.9821 46.7007 11.7645 45.3854 11.328C44.6936 11.0963 43.8007 11.2657 42.863 11.808C42.7913 11.8494 42.7099 11.8712 42.6271 11.8712C42.5443 11.8712 42.463 11.8494 42.3912 11.808L37.0077 8.67861C36.9367 8.63701 36.8778 8.57755 36.8369 8.50614C36.7959 8.43473 36.7744 8.35386 36.7744 8.27155C36.7744 8.18925 36.7959 8.10837 36.8369 8.03697C36.8778 7.96556 36.9367 7.9061 37.0077 7.8645C38.1865 7.18567 39.3548 6.98685 40.3007 7.30685C44.5618 8.71979 49.816 7.65626 55.9124 4.13744C56.6428 3.71473 57.3623 3.27341 58.0701 2.81391C58.176 2.74449 58.2818 2.68097 58.3865 2.61979C59.856 1.77273 61.2571 1.65038 62.3371 2.27861L67.7207 5.40802C67.8205 5.4745 67.8912 5.57657 67.9183 5.6934C67.9454 5.81022 67.9268 5.93299 67.8664 6.03661C67.8061 6.14024 67.7084 6.2169 67.5934 6.25095C67.4784 6.28499 67.3548 6.27385 67.2477 6.21979C66.4865 5.77744 65.3877 5.90214 64.2407 6.56449C64.1475 6.61827 64.0557 6.67437 63.9654 6.73273C63.2207 7.21508 62.4877 7.66567 61.7677 8.08214C57.2689 10.6786 53.1889 11.9821 49.576 11.9821ZM44.7395 10.2868C45.0712 10.2868 45.3889 10.3363 45.6842 10.4351C49.9501 11.8527 55.2042 10.7845 61.296 7.26685C62.0263 6.84411 62.7458 6.40279 63.4536 5.94332C63.5607 5.87391 63.6654 5.8092 63.7701 5.7492C64.2611 5.45916 64.7935 5.24572 65.3489 5.11626L61.8642 3.09155C61.1007 2.64802 60.0054 2.77391 58.8571 3.43508C58.764 3.48886 58.6722 3.54495 58.5818 3.60332C57.8371 4.08685 57.1042 4.53626 56.3818 4.95273C50.0442 8.61155 44.5312 9.70449 40.0018 8.19979C39.5042 8.03273 38.9007 8.07391 38.2512 8.31391L42.6348 10.8586C43.3618 10.4798 44.0818 10.2857 44.7395 10.2857V10.2868Z" fill="black"/>
<path d="M37.7231 78.1174C31.7149 78.1174 26.6231 76.1197 22.8619 72.2527C16.3125 65.5174 13.8902 53.3868 16.0431 38.0986C16.4737 35.0715 18.5784 31.8397 21.0478 30.415C21.1537 30.3539 21.2596 30.2974 21.3654 30.2421C22.0952 29.8729 22.8147 29.4837 23.5231 29.075C29.6819 25.5186 35.0031 20.4362 39.3384 13.9692C40.189 12.6974 41.2749 11.6397 42.3925 10.9927C43.5713 10.3139 44.7384 10.1162 45.6843 10.435C49.9502 11.8527 55.2043 10.7844 61.296 7.2668C62.0264 6.84406 62.7459 6.40274 63.4537 5.94327C63.5607 5.87386 63.6655 5.80915 63.7702 5.74915C65.1266 4.9668 66.4525 4.80209 67.4984 5.29033C68.4255 5.72209 69.056 6.64327 69.2749 7.88445C73.0807 29.6786 63.5607 56.2692 45.0219 75.6292C44.4419 76.2463 43.7777 76.7786 43.049 77.2103C42.3502 77.6139 41.6584 77.8562 40.9937 77.9291C39.8772 78.055 38.7854 78.1174 37.7231 78.1174ZM42.8643 11.808C41.8678 12.3844 40.8925 13.3374 40.1207 14.4939C35.7031 21.0821 30.2784 26.2609 23.9937 29.8903C23.2713 30.3068 22.5372 30.7044 21.7902 31.0821C21.6984 31.1292 21.609 31.1774 21.5196 31.2303C19.2784 32.5233 17.3678 35.4668 16.976 38.2303C14.8643 53.2244 17.1949 65.0739 23.5384 71.5974C27.8113 75.9927 33.6502 77.8091 40.8902 76.9939C41.4255 76.935 41.9925 76.7338 42.5784 76.3939C43.2305 76.0073 43.8246 75.5304 44.3431 74.9774C62.6796 55.8268 72.1031 29.555 68.3478 8.0468C68.1807 7.10327 67.7502 6.44445 67.0996 6.14209C66.3349 5.78562 65.3207 5.93856 64.2407 6.56327C64.1472 6.61703 64.055 6.67312 63.9643 6.73151C63.2196 7.21386 62.4866 7.66445 61.7666 8.08092C55.4302 11.7386 49.9172 12.8339 45.3843 11.3268C44.6925 11.095 43.7996 11.2644 42.8619 11.8068L42.8643 11.808Z" fill="black"/>
<path d="M27.1421 75.4832C27.0591 75.4834 26.9774 75.4615 26.9057 75.4197L26.8904 75.4103L21.5221 72.2903C12.0539 66.7879 8.09625 53.1844 10.6586 34.9691C10.8845 33.3844 11.5857 31.6867 12.6351 30.1926C12.7751 29.9926 13.0433 29.9326 13.2562 30.055L18.641 33.1844C18.6972 33.2172 18.746 33.2613 18.7843 33.3139C18.8226 33.3665 18.8495 33.4265 18.8635 33.4901C18.8774 33.5537 18.878 33.6194 18.8652 33.6833C18.8524 33.7471 18.8265 33.8075 18.7892 33.8609C17.8245 35.2373 17.1798 36.7879 16.9739 38.2303C14.4668 56.0456 18.2562 69.3032 27.3739 74.6032L27.3774 74.6056C27.467 74.6575 27.5369 74.7376 27.5764 74.8333C27.6158 74.929 27.6226 75.0351 27.5957 75.135C27.5687 75.235 27.5096 75.3233 27.4274 75.3863C27.3452 75.4492 27.2457 75.4833 27.1421 75.4832ZM11.5927 35.0997C9.0833 52.9185 12.8751 66.1773 21.9951 71.4761L22.3209 71.6667C16.2209 64.8538 13.9421 53.0244 16.0433 38.0985C16.2492 36.6609 16.8445 35.1326 17.7351 33.7456L13.1645 31.0903C12.3339 32.3738 11.7786 33.7844 11.5927 35.0997Z" fill="black"/>
<path d="M18.4054 34.0621C18.3222 34.0617 18.2407 34.0394 18.1689 33.9974L12.7842 30.868C12.728 30.8352 12.6792 30.7911 12.6409 30.7385C12.6026 30.6859 12.5756 30.6259 12.5617 30.5623C12.5478 30.4987 12.5472 30.4329 12.5599 30.3691C12.5727 30.3053 12.5986 30.2448 12.636 30.1915C13.5277 28.9198 14.5748 27.9139 15.6642 27.2857C15.7689 27.2245 15.8736 27.168 15.9795 27.1151C16.7098 26.7457 17.4297 26.3562 18.1383 25.9468C24.296 22.3915 29.6171 17.3092 33.9548 10.8409C34.8054 9.568 35.8913 8.51036 37.0089 7.86447C37.0806 7.82307 37.162 7.80127 37.2448 7.80127C37.3276 7.80127 37.4089 7.82307 37.4807 7.86447L42.8642 10.9939C42.9352 11.0355 42.9941 11.0949 43.035 11.1664C43.076 11.2378 43.0975 11.3186 43.0975 11.4009C43.0975 11.4833 43.076 11.5641 43.035 11.6355C42.9941 11.7069 42.9352 11.7664 42.8642 11.808C41.8665 12.3845 40.8913 13.3386 40.1207 14.4939C35.703 21.0821 30.2783 26.2609 23.9936 29.8904C23.2713 30.3068 22.5371 30.7045 21.7901 31.0821C21.6983 31.1292 21.6089 31.1774 21.5195 31.2304C20.5477 31.7904 19.6054 32.7009 18.7901 33.8609C18.7467 33.9227 18.6891 33.9731 18.6221 34.0079C18.5552 34.0427 18.4808 34.0621 18.4054 34.0621ZM13.7101 30.3186L18.2748 32.9704C19.1089 31.8633 20.063 30.9845 21.0477 30.4151C21.1536 30.3539 21.2595 30.2974 21.3654 30.2421C22.0951 29.8729 22.8146 29.4837 23.523 29.0751C29.6818 25.5186 35.003 20.4362 39.3383 13.9692C40.0183 12.9504 40.8513 12.068 41.7324 11.4245L37.2489 8.81977C36.3336 9.4033 35.4489 10.2974 34.7371 11.3645C30.3183 17.9527 24.8924 23.1339 18.6089 26.7609C17.8877 27.1774 17.1536 27.5751 16.4065 27.9539C16.3171 27.9998 16.2265 28.048 16.136 28.1009C15.283 28.5939 14.4513 29.3551 13.7101 30.3186ZM37.6677 72.3045C32.8913 72.3045 29.2348 70.768 26.4889 67.608C21.6465 62.0351 19.983 51.8433 21.8042 38.9104C21.9971 37.5515 23.1195 35.9362 23.956 35.4515C24.7934 35.0268 25.6192 34.5796 26.4324 34.1104C33.3654 30.1092 39.3324 24.4221 44.1701 17.2092C44.3536 16.9339 44.5536 16.6856 44.763 16.4727C44.8198 16.414 44.8909 16.3713 44.9694 16.3488C45.0479 16.3263 45.1309 16.3248 45.2101 16.3445C46.6265 16.6892 48.1018 16.8645 49.6007 16.8645C53.463 16.8645 57.4865 15.7821 61.8983 13.5527C62.3807 13.3092 62.9501 13.328 63.423 13.6021C63.896 13.8762 64.1936 14.3609 64.223 14.9009C65.2242 33.7574 56.2571 55.4856 40.8207 71.6068C40.6485 71.7912 40.4577 71.9571 40.2513 72.1021C40.1863 72.1469 40.111 72.1744 40.0324 72.1821C39.2207 72.2645 38.4254 72.3045 37.6677 72.3045ZM45.2595 17.3233C45.1536 17.448 45.0501 17.5857 44.9513 17.7339C40.0336 25.0668 33.9618 30.8515 26.9042 34.9256C26.0995 35.3904 25.2618 35.8433 24.4042 36.2786C23.8042 36.6268 22.883 38.0057 22.7371 39.0409C20.9524 51.6998 22.5371 61.6268 27.1995 66.9915C30.1465 70.3833 34.2571 71.788 39.8113 71.2574C39.9282 71.1651 40.0379 71.064 40.1395 70.9551C55.403 55.0162 64.2701 33.5562 63.2818 14.9504C63.2762 14.8404 63.2426 14.7337 63.1844 14.6403C63.1262 14.5468 63.0451 14.4697 62.9489 14.4162C62.855 14.3592 62.7482 14.3272 62.6384 14.323C62.5287 14.3189 62.4197 14.3429 62.3218 14.3927C57.7748 16.6892 53.6124 17.8056 49.5995 17.8056C48.1218 17.8056 46.6654 17.6433 45.2595 17.3233Z" fill="black"/>
<path d="M35.5962 58.0809C35.3221 58.0809 35.0668 58.015 34.8362 57.8833C34.3044 57.5774 34.0103 56.9727 34.0079 56.1798L33.9785 45.9233C33.975 44.4692 34.9609 42.7586 36.2256 42.0303L48.6444 34.8598C49.3385 34.4598 50.0126 34.4092 50.5479 34.7174C51.0797 35.0233 51.3738 35.628 51.3762 36.4198L51.4044 46.6774C51.4079 48.1303 50.4209 49.8398 49.1573 50.568L36.7385 57.7409C36.3444 57.968 35.9562 58.0821 35.5973 58.0821L35.5962 58.0809ZM49.1162 35.675L36.6962 42.8456C35.7303 43.4021 34.9162 44.8103 34.9197 45.9209L34.9503 56.1774C34.9503 56.6127 35.0797 56.9374 35.3044 57.0668C35.5338 57.1974 35.8832 57.1456 36.2668 56.9256L48.6868 49.7539C49.6515 49.1962 50.4656 47.7892 50.4632 46.6798L50.4338 36.4221C50.4326 35.9868 50.3032 35.6621 50.0774 35.5327C49.8491 35.4021 49.5009 35.455 49.1162 35.675Z" fill="black"/>
<path d="M36.5234 42.8728C36.3995 42.8719 36.2809 42.8225 36.1929 42.7352C36.105 42.6479 36.0547 42.5297 36.0529 42.4058L36.0364 39.5281C36.0246 35.4869 38.8776 30.5493 42.3917 28.5199C44.1976 27.4752 45.9187 27.3199 47.2376 28.0787C48.5434 28.8316 49.267 30.3752 49.2729 32.4269L49.2881 35.3011C49.2884 35.3841 49.2669 35.4658 49.2255 35.5379C49.1842 35.61 49.1247 35.6699 49.0529 35.7116L45.5281 37.7469C45.4565 37.788 45.3754 37.8096 45.2929 37.8096C45.2103 37.8096 45.1292 37.788 45.0576 37.7469C44.9867 37.7056 44.9277 37.6466 44.8865 37.5757C44.8452 37.5047 44.8231 37.4243 44.8223 37.3422L44.8058 34.4658C44.8046 33.8446 44.6152 33.3952 44.274 33.1975C43.9305 33.0022 43.4234 33.0681 42.8823 33.3799C41.5881 34.1269 40.4987 36.0081 40.5034 37.4893L40.5187 40.3646C40.5188 40.4475 40.4971 40.5289 40.4558 40.6008C40.4145 40.6726 40.3551 40.7324 40.2834 40.774L36.7587 42.8093C36.6873 42.8509 36.6061 42.8728 36.5234 42.8728ZM42.8623 29.334C39.6081 31.214 36.9681 35.7846 36.9776 39.5246L36.9893 41.5893L39.5752 40.0952L39.5623 37.4928C39.5576 35.6846 40.8364 33.4752 42.4105 32.5658C43.2646 32.0716 44.0929 32.0081 44.7423 32.3822C45.3881 32.7528 45.7446 33.4916 45.747 34.4622L45.7587 36.5269L48.3446 35.0328L48.3305 32.4305C48.3258 30.7281 47.7705 29.4716 46.7681 28.894C45.7529 28.3116 44.367 28.4658 42.8623 29.334ZM34.4493 49.2916C34.3466 49.2924 34.2465 49.2594 34.1643 49.1978C34.0821 49.1361 34.0224 49.0492 33.9944 48.9504C33.9663 48.8516 33.9715 48.7463 34.009 48.6507C34.0466 48.5551 34.1145 48.4744 34.2023 48.4211L39.2023 45.3446C39.3087 45.2791 39.4367 45.2585 39.5583 45.2874C39.6799 45.3163 39.785 45.3923 39.8505 45.4987C39.916 45.6051 39.9366 45.7332 39.9077 45.8547C39.8788 45.9763 39.8028 46.0814 39.6964 46.1469L34.6964 49.2222C34.6222 49.2682 34.5366 49.2915 34.4493 49.2916ZM34.4493 54.4316C34.3466 54.4324 34.2465 54.3994 34.1643 54.3378C34.0821 54.2761 34.0224 54.1892 33.9944 54.0904C33.9663 53.9916 33.9715 53.8863 34.009 53.7907C34.0466 53.6951 34.1145 53.6144 34.2023 53.5611L39.2023 50.4846C39.3087 50.4191 39.4367 50.3985 39.5583 50.4274C39.6799 50.4563 39.785 50.5323 39.8505 50.6387C39.916 50.7451 39.9366 50.8732 39.9077 50.9947C39.8788 51.1163 39.8028 51.2214 39.6964 51.2869L34.6964 54.3622C34.6222 54.4082 34.5366 54.4327 34.4493 54.4328V54.4316ZM45.934 42.7552C45.8313 42.7559 45.7312 42.7229 45.649 42.6613C45.5668 42.5996 45.5071 42.5127 45.4791 42.4139C45.4511 42.3151 45.4562 42.2098 45.4938 42.1142C45.5313 42.0186 45.5992 41.9379 45.687 41.8846L50.687 38.8081C50.7934 38.7426 50.9214 38.722 51.043 38.7509C51.1646 38.7798 51.2697 38.8558 51.3352 38.9622C51.4007 39.0686 51.4213 39.1967 51.3924 39.3183C51.3635 39.4398 51.2875 39.5449 51.1811 39.6105L46.1811 42.6858C46.1069 42.7318 46.0213 42.755 45.934 42.7552ZM45.934 47.8952C45.8313 47.8959 45.7312 47.8629 45.649 47.8013C45.5668 47.7396 45.5071 47.6528 45.4791 47.5539C45.4511 47.4551 45.4562 47.3498 45.4938 47.2542C45.5313 47.1586 45.5992 47.0779 45.687 47.0246L50.687 43.9481C50.7931 43.89 50.9174 43.8749 51.0343 43.9059C51.1512 43.9369 51.2518 44.0116 51.3152 44.1146C51.3786 44.2175 51.4001 44.341 51.3751 44.4593C51.3502 44.5776 51.2807 44.6819 51.1811 44.7505L46.1811 47.8258C46.1069 47.8718 46.0213 47.8962 45.934 47.8964V47.8952Z" fill="black"/>
</g>
<defs>
<clipPath id="clip0_2091_281">
<rect width="80" height="80" fill="white"/>
</clipPath>
</defs>
</svg>
